<svg style="position: absolute; width: 0; height: 0; overflow: hidden" version="1.1" xmlns="http://www.w3.org/2000/svg" xmlns:xlink="http://www.w3.org/1999/xlink">
	<symbol id="lego" viewBox="0 0 110 110">
		<circle cx="55" cy="55" r="55" fill="#e04f5f"/>
	<path fill="#fcf6c2" d="M59 34L27 46v25l24 12 32-12V46z"/>
	<path fill="#f3b607" d="M83 71L51 83V58l32-12z"/>
	<path fill="#facb1b" d="M27 71l24 12V58L27 46z"/>
	<path fill="#f3b607" d="M59 48v4c0 1.1-2.69 2-6 2s-6-.9-6-2v-4c0 1.1 2.69 2 6 2s6-.9 6-2z"/>
	<path fill="#fcf6c2" d="M53 46c-3.31 0-6 .9-6 2s2.69 2 6 2 6-.9 6-2-2.69-2-6-2z"/>
	<path fill="#f3b607" d="M47 42v4c0 1.1-2.69 2-6 2s-6-.9-6-2v-4c0 1.1 2.69 2 6 2s6-.9 6-2z"/>
	<path fill="#fcf6c2" d="M41 40c-3.31 0-6 .9-6 2s2.69 2 6 2 6-.9 6-2-2.69-2-6-2z"/>
	<path fill="#f3b607" d="M63 36v4c0 1.1-2.69 2-6 2s-6-.9-6-2v-4c0 1.1 2.69 2 6 2s6-.9 6-2z"/>
	<path fill="#fcf6c2" d="M57 34c-3.31 0-6 .9-6 2s2.69 2 6 2 6-.9 6-2-2.69-2-6-2z"/>
	<path fill="#f3b607" d="M75 42v4c0 1.1-2.69 2-6 2s-6-.9-6-2v-4c0 1.1 2.69 2 6 2s6-.9 6-2z"/>
	<path fill="#fcf6c2" d="M69 40c-3.31 0-6 .9-6 2s2.69 2 6 2 6-.9 6-2-2.69-2-6-2z"/>
	</symbol>
	<symbol id="icon-html" viewBox="0 0 64 64">
		 <circle cx="32" cy="32" r="32" fill="#C75C5C"/>
	<path fill="none" stroke="#E0E0D1" stroke-linecap="round" stroke-miterlimit="10" stroke-width="4" d="M44.24 34.3a16.16 16.16 0 0 1-24.48 0"/>
	<path fill="none" stroke="#E0E0D1" stroke-linecap="round" stroke-linejoin="round" stroke-miterlimit="10" stroke-width="4" d="M32 17v-5"/>
	<path fill="#231F20" d="M47.76 51.05L35.74 28.73a4.3 4.3 0 0 1-5.04.75 11.7 11.7 0 0 1-2.16-1.28l-12.3 22.85a2 2 0 1 0 3.52 1.9L32 30.22l12.24 22.73a2 2 0 1 0 3.52-1.9z" opacity=".2"/>
	<path fill="none" stroke="#E0E0D1" stroke-linecap="round" stroke-linejoin="round" stroke-miterlimit="10" stroke-width="4" d="M35.14 29.84L46 50M18 50l10.96-20.36"/>
	<path fill="#231F20" d="M32 34a8 8 0 0 1 0-16 8 8 0 0 1 0 16zm0-12a4 4 0 1 0 0 8 4 4 0 0 0 0-8z" opacity=".2"/>
	<circle cx="32" cy="24" r="6" fill="none" stroke="#E0E0D1" stroke-miterlimit="10" stroke-width="4"/>
	</symbol>
	<symbol id="icon-code2" viewBox="0 0 64 64">
			<circle cx="32" cy="32" r="32" fill="#76C2AF"/>
	<g opacity=".2">
		<path fill="#231F20" d="M42.46 44a2 2 0 0 1-1.05-3.7l10.12-6.25.01-.05a.2.2 0 0 0 0-.06L41.4 27.7a2 2 0 0 1 2.1-3.4l10.63 6.55.16.17a4.2 4.2 0 0 1 0 5.96l-.16.17L43.5 43.7a2 2 0 0 1-1.05.3zM21.54 44c-.36 0-.72-.1-1.05-.3L9.86 37.15l-.17-.17a4.19 4.19 0 0 1 0-5.96l.17-.17 10.63-6.55a2 2 0 1 1 2.1 3.4l-10.12 6.25-.01.05a.2.2 0 0 0 0 .06L22.6 40.3a2 2 0 0 1-1.05 3.7z"/>
	</g>
	<path fill="#231F20" d="M25.5 53a2 2 0 0 1-1.87-2.71l13-34a2 2 0 1 1 3.74 1.42l-13 34A2 2 0 0 1 25.5 53z" opacity=".2"/>
	<path fill="#FFF" d="M42.46 42a2 2 0 0 1-1.05-3.7l10.12-6.24a.22.22 0 0 0 0-.12L41.41 25.7a2 2 0 1 1 2.1-3.4l10.63 6.55.17.17a4.23 4.23 0 0 1 0 5.96l-.17.17-10.63 6.55a2 2 0 0 1-1.05.3zM21.54 42c-.36 0-.72-.1-1.05-.3L9.86 35.15l-.17-.17a4.23 4.23 0 0 1 0-5.96l.17-.17 10.63-6.55a2 2 0 1 1 2.1 3.4l-10.12 6.24a.22.22 0 0 0 0 .12l10.12 6.24a2 2 0 0 1-1.05 3.7z"/>
	<g>
		<path fill="#FFF" d="M25.5 51a2 2 0 0 1-1.87-2.71l13-34a2 2 0 0 1 3.74 1.42l-13 34a2 2 0 0 1-1.87 1.3z"/>
	</g>
	</symbol>
	<symbol id="icon-linkedin" viewBox="0 0 67 67">
		<path d="M50.837 48.137V36.425c0-6.275-3.35-9.195-7.816-9.195-3.604 0-5.219 1.983-6.119 3.374V27.71h-6.79c.09 1.917 0 20.427 0 20.427h6.79V36.729c0-.609.044-1.219.224-1.655.49-1.22 1.607-2.483 3.482-2.483 2.458 0 3.44 1.873 3.44 4.618v10.929h6.789zM22.959 24.922c2.367 0 3.842-1.57 3.842-3.531-.044-2.003-1.475-3.528-3.797-3.528s-3.841 1.524-3.841 3.528c0 1.961 1.474 3.531 3.753 3.531h.043zM34 64C17.432 64 4 50.568 4 34 4 17.431 17.432 4 34 4s30 13.431 30 30c0 16.568-13.432 30-30 30zm-7.646-15.863V27.71h-6.789v20.427h6.789z" fill-rule="evenodd" clip-rule="evenodd" fill="#007ab9"/>
	</symbol>
	<symbol id="icon-github" viewBox="0 0 67 67">
		 <path d="M20.543 34.568c-.054 0 .592 1.367.61 1.367 1.41 2.516 4.128 4.08 8.713 4.514-.654.488-1.44 1.414-1.549 2.484-.823.523-2.478.696-3.764.297-1.803-.559-2.493-4.066-5.192-3.566-.584.107-.468.486.037.809.823.523 1.597 1.178 2.194 2.571.459 1.07 1.423 2.981 4.473 2.981 1.21 0 2.058-.143 2.058-.143s.023 2.731.023 3.793c0 1.225-1.682 1.57-1.682 2.159 0 .233.557.255 1.004.255.884 0 2.723-.725 2.723-1.998 0-1.011.017-4.41.017-5.006 0-1.3.709-1.712.709-1.712s.088 6.94-.169 7.872c-.302 1.094-.847.939-.847 1.427 0 .726 2.214.179 2.948-1.416.567-1.239.319-8.05.319-8.05l.605-.012s.034 3.117.013 4.542c-.021 1.476-.123 3.342.769 4.222.586.579 2.484 1.594 2.484.666 0-.539-1.04-.982-1.04-2.441v-6.715c.831 0 .706 2.208.706 2.208l.061 4.103s-.184 1.494 1.645 2.119c.645.223 2.025.283 2.09-.09.065-.373-1.662-.928-1.678-2.084-.01-.707.032-1.119.032-4.187 0-3.068-.419-4.202-1.88-5.106 4.508-.455 7.299-1.551 8.658-4.486.106.003.555-1.371.496-1.371.305-1.108.47-2.419.502-3.971-.008-4.21-2.058-5.699-2.451-6.398.58-3.187-.098-4.637-.412-5.135-1.162-.406-4.041 1.045-5.615 2.067-2.564-.737-7.986-.666-10.019.19-3.751-2.639-5.736-2.235-5.736-2.235s-1.283 2.259-.339 5.565c-1.234 1.546-2.154 2.64-2.154 5.539.001 1.634.197 3.096.638 4.372zM33 64C16.432 64 3 50.568 3 34 3 17.431 16.432 4 33 4s30 13.431 30 30c0 16.568-13.432 30-30 30z" fill-rule="evenodd" clip-rule="evenodd" fill="#010101"/>
	</symbol>
	<symbol id="icon-facebook" viewBox="0 0 67 67">
		<path d="M29.765 50.32h6.744V33.998h4.499l.596-5.624h-5.095l.007-2.816c0-1.466.14-2.253 2.244-2.253h2.812V17.68h-4.5c-5.405 0-7.307 2.729-7.307 7.317v3.377h-3.369v5.625h3.369V50.32zM34 64C17.432 64 4 50.568 4 34 4 17.431 17.432 4 34 4s30 13.431 30 30c0 16.568-13.432 30-30 30z" fill-rule="evenodd" clip-rule="evenodd" fill="#3a589b"/>
	</symbol>
</svg>
